# xmcd CD database file
#
# Track frame offsets:
#	150
#	22970
#	46507
#	69318
#
# Disc length: 1234 seconds
#
# Revision: 1
# Processed by: cddbd v1.5.1PL2 Copyright (c) Steve Scherf et al.
# Submitted via: CDex 1.51
#
DISCID=2204d004
DTITLE=ひだまり - Size Up
DYEAR=2006
DGENRE=JPop
TTITLE0=Size Up
TTITLE1=嵐のち晴れ 〜そして…ひだまり。〜 Version
TTITLE2=Size Up(backtracks)
TTITLE3=嵐のち晴れ 〜そして…ひだまり。〜 Version(backtracks)
EXTD=YEAR: 2006
EXTT0=
EXTT1=
EXTT2=
EXTT3=
PLAYORDER=
